<svg width="68" height="17" fill="none" xmlns="http://www.w3.org/2000/svg"><g clip-path="url(#a)"><path d="m9 0 2.1 6.5H18l-5.6 4 2.2 6.5L9 13l-5.6 4 2.2-6.5-5.6-4h6.9L9 0Z" fill="#83B3D3"/></g><g clip-path="url(#b)"><path d="m34 0 2.1 6.5H43l-5.6 4 2.2 6.5-5.6-4-5.6 4 2.2-6.5-5.6-4h6.9L34 0Z" fill="#83B3D3"/></g><g clip-path="url(#c)"><path d="m59 0 2.1 6.5H68l-5.6 4 2.2 6.5-5.6-4-5.6 4 2.2-6.5-5.6-4h6.9L59 0Z" fill="#83B3D3"/></g><defs><clipPath id="a"><path fill="#fff" d="M0 0h18v17H0z"/></clipPath><clipPath id="b"><path fill="#fff" transform="translate(25)" d="M0 0h18v17H0z"/></clipPath><clipPath id="c"><path fill="#fff" transform="translate(50)" d="M0 0h18v17H0z"/></clipPath></defs></svg>