<svg width="62" height="14" viewBox="0 0 62 14" fill="none" xmlns="http://www.w3.org/2000/svg"><path d="M.89 7.15h10.5v1.33H.9V7.15Zm28.04.22h5V8.7h-5V7.37Zm-8.25-2.54-.97-1.9h-.07l.21 1.83V13h-1.44V.2h.8l5.68 8.34.92 1.8h.1l-.2-1.73V.4h1.43v12.8h-.82l-5.64-8.37Zm7.9-1.59c0-.54.08-1 .22-1.38.14-.39.34-.7.58-.96.25-.25.54-.43.88-.54a3.57 3.57 0 0 1 2.21-.02c.35.11.64.29.88.53.26.24.45.56.6.95.14.39.21.86.21 1.42 0 .57-.07 1.05-.21 1.44-.15.39-.34.7-.6.94a2.1 2.1 0 0 1-.88.52 3.75 3.75 0 0 1-2.21 0c-.34-.1-.63-.28-.88-.52a2.58 2.58 0 0 1-.58-.94c-.14-.4-.22-.87-.22-1.44Zm1.34 0c0 .72.12 1.24.37 1.55.27.31.63.47 1.08.47.23 0 .44-.03.62-.09.18-.07.33-.18.45-.32.13-.16.22-.36.28-.62.08-.26.11-.59.11-.99s-.03-.72-.1-.97a1.32 1.32 0 0 0-.3-.61.93.93 0 0 0-.44-.32c-.18-.08-.39-.11-.62-.11-.45 0-.81.14-1.08.43-.25.28-.37.8-.37 1.58Zm7.33 8.43h2.52V2.96l.18-1.07-.72.85-1.98 1.42-.68-.92L40.53.18h.64v11.49h2.47V13h-6.39v-1.33ZM50.6 7.15h10.5v1.33H50.6V7.15Z" fill="#fff"/></svg>